<svg id="svg" version="1.1" xmlns="http://www.w3.org/2000/svg" xmlns:xlink="http://www.w3.org/1999/xlink" width="400" height="400" viewBox="0, 0, 400,400"><g id="svgg"><path id="path0" d="M299.429 63.029 C 298.860 63.598,298.800 76.691,298.800 201.159 L 298.800 338.661 299.726 339.530 C 300.937 340.668,310.366 340.859,311.911 339.777 L 312.800 339.155 312.800 201.257 C 312.800 94.537,312.691 63.251,312.320 62.880 C 311.531 62.091,300.236 62.222,299.429 63.029 M311.100 64.423 L 312.000 64.992 312.000 201.672 L 312.000 338.351 310.300 338.598 C 309.365 338.735,306.800 338.791,304.600 338.723 L 300.600 338.600 300.499 201.642 C 300.421 94.256,300.504 64.556,300.887 64.095 C 301.543 63.305,309.749 63.569,311.100 64.423 " stroke="none" fill="#cb6fa6" fill-rule="evenodd"></path><path id="path1" d="M107.635 29.758 C 107.380 30.065,106.548 30.433,105.786 30.576 C 105.024 30.719,104.400 31.012,104.400 31.227 C 104.400 31.441,103.950 31.822,103.400 32.073 C 102.850 32.323,102.400 32.726,102.400 32.968 C 102.400 33.210,102.040 33.632,101.600 33.907 C 101.160 34.182,100.800 34.647,100.800 34.941 C 100.800 36.578,99.803 36.744,89.138 36.874 C 80.042 36.986,78.795 37.079,78.110 37.700 C 77.685 38.085,76.719 38.400,75.965 38.400 C 75.026 38.400,74.435 38.653,74.093 39.200 C 73.774 39.710,73.160 40.000,72.397 40.000 C 71.467 40.000,71.200 40.178,71.200 40.800 C 71.200 41.386,70.933 41.600,70.203 41.600 C 69.640 41.600,68.990 41.948,68.707 42.400 C 68.432 42.840,67.891 43.200,67.504 43.200 C 67.117 43.200,66.800 43.462,66.800 43.782 C 66.800 44.315,66.151 45.162,63.996 47.442 C 63.558 47.905,63.200 48.503,63.200 48.771 C 63.200 49.038,62.930 49.527,62.600 49.857 C 62.270 50.187,62.000 51.046,62.000 51.767 C 62.000 52.568,61.690 53.357,61.199 53.800 C 60.109 54.787,60.110 349.000,61.200 349.000 C 61.622 349.000,61.867 349.587,62.027 350.976 C 62.152 352.062,62.467 353.022,62.727 353.109 C 62.987 353.196,63.200 353.610,63.200 354.030 C 63.200 354.450,63.560 355.018,64.000 355.293 C 64.440 355.568,64.800 355.931,64.800 356.100 C 64.800 356.745,68.213 360.000,68.890 360.000 C 69.333 360.000,69.600 360.300,69.600 360.800 C 69.600 361.297,69.867 361.600,70.304 361.600 C 70.691 361.600,71.232 361.960,71.507 362.400 C 71.810 362.885,72.440 363.200,73.107 363.200 C 73.774 363.200,74.404 363.515,74.707 364.000 C 75.107 364.641,75.640 364.800,77.380 364.800 C 78.591 364.800,79.679 365.004,79.838 365.262 C 80.029 365.571,79.938 365.618,79.562 365.403 C 79.098 365.138,79.090 365.180,79.520 365.641 C 80.417 366.605,319.871 366.465,320.576 365.500 C 320.921 365.028,321.629 364.800,322.744 364.800 C 323.867 364.800,324.658 364.542,325.200 364.000 C 325.640 363.560,326.360 363.200,326.800 363.200 C 327.240 363.200,327.960 362.840,328.400 362.400 C 328.840 361.960,329.470 361.600,329.800 361.600 C 330.133 361.600,330.400 361.244,330.400 360.800 C 330.400 360.267,330.667 360.000,331.200 360.000 C 331.733 360.000,332.000 359.733,332.000 359.200 C 332.000 358.667,332.267 358.400,332.800 358.400 C 333.240 358.400,333.600 358.151,333.600 357.847 C 333.600 357.542,333.960 357.199,334.400 357.084 C 334.860 356.964,335.200 356.538,335.200 356.084 C 335.200 355.630,335.540 355.204,336.000 355.084 C 336.583 354.932,336.800 354.538,336.800 353.637 C 336.800 352.846,337.001 352.400,337.357 352.400 C 338.012 352.400,338.400 351.545,338.400 350.099 C 338.400 349.529,338.715 348.715,339.100 348.290 C 340.190 347.085,340.190 55.020,339.100 54.224 C 338.707 53.936,338.400 53.194,338.400 52.531 C 338.400 51.882,338.040 50.964,337.600 50.492 C 337.160 50.020,336.800 49.249,336.800 48.779 C 336.800 48.262,336.485 47.843,336.000 47.716 C 335.560 47.601,335.200 47.172,335.200 46.763 C 335.200 46.353,334.750 45.724,334.200 45.363 C 333.650 45.003,333.200 44.453,333.200 44.141 C 333.200 43.830,332.885 43.462,332.500 43.323 C 332.115 43.185,331.478 42.741,331.084 42.336 C 330.691 41.931,330.016 41.600,329.584 41.600 C 329.067 41.600,328.800 41.328,328.800 40.800 C 328.800 40.192,328.533 40.000,327.688 40.000 C 327.035 40.000,326.339 39.670,326.000 39.200 C 325.615 38.666,324.965 38.400,324.043 38.400 C 323.284 38.400,322.315 38.085,321.890 37.700 C 321.159 37.039,316.749 36.994,242.958 36.896 C 171.959 36.802,164.800 36.734,164.800 36.159 C 164.800 35.810,164.440 35.431,164.000 35.316 C 163.557 35.200,163.200 34.770,163.200 34.353 C 163.200 33.867,162.917 33.600,162.400 33.600 C 161.867 33.600,161.600 33.333,161.600 32.800 C 161.600 32.267,161.333 32.000,160.800 32.000 C 160.350 32.000,160.000 31.733,160.000 31.390 C 160.000 31.033,159.506 30.681,158.809 30.542 C 158.154 30.411,157.412 30.055,157.160 29.752 C 156.473 28.925,108.321 28.931,107.635 29.758 M99.986 46.374 C 100.262 46.890,100.400 58.642,100.401 81.674 C 100.403 119.938,100.248 117.634,102.934 119.394 C 104.075 120.141,106.568 119.414,108.400 117.799 C 108.950 117.314,109.670 116.794,110.000 116.643 C 111.133 116.125,112.508 115.272,112.754 114.935 C 113.178 114.354,116.221 112.400,116.702 112.400 C 116.954 112.400,117.304 112.171,117.480 111.890 C 117.766 111.435,118.907 110.597,120.865 109.405 C 121.230 109.182,122.364 108.415,123.385 107.700 C 124.405 106.985,125.389 106.400,125.571 106.400 C 125.753 106.400,126.122 106.135,126.390 105.812 C 126.658 105.489,128.092 104.524,129.577 103.668 C 132.810 101.804,132.512 101.682,144.400 109.744 C 144.950 110.118,146.210 110.956,147.200 111.608 C 148.190 112.259,149.360 113.075,149.800 113.419 C 150.784 114.190,156.448 117.881,158.523 119.103 C 160.495 120.265,160.924 120.236,162.494 118.833 L 163.800 117.666 163.906 82.166 C 163.983 56.486,164.138 46.516,164.465 46.121 C 165.244 45.183,275.942 45.568,279.933 46.523 C 285.259 47.797,288.791 50.847,291.171 56.229 L 292.000 58.102 292.000 201.414 L 292.000 344.725 290.825 347.345 C 289.474 350.356,287.102 353.118,284.914 354.226 C 284.081 354.648,283.088 355.245,282.706 355.553 C 281.311 356.679,269.204 356.808,175.181 356.705 L 79.800 356.600 77.400 355.262 C 73.699 353.199,70.819 350.055,70.163 347.361 C 70.008 346.723,69.637 345.845,69.340 345.411 C 68.307 343.902,68.563 58.839,69.600 56.904 C 70.040 56.084,70.400 55.192,70.400 54.924 C 70.400 52.322,76.379 47.496,81.000 46.367 C 85.419 45.288,99.407 45.292,99.986 46.374 M317.776 46.448 C 324.164 47.630,328.313 51.400,330.267 57.800 C 331.433 61.617,331.409 341.811,330.243 345.200 C 328.485 350.309,326.052 353.220,321.902 355.181 L 319.323 356.400 307.161 356.394 C 300.473 356.391,294.765 356.238,294.477 356.056 C 293.963 355.730,294.810 353.758,296.218 352.000 C 296.483 351.670,296.906 350.754,297.159 349.965 C 298.152 346.869,298.353 346.800,306.432 346.800 C 314.222 346.800,315.433 346.529,317.486 344.328 C 319.751 341.900,319.600 352.120,319.600 201.622 C 319.600 49.033,319.801 60.601,317.105 58.152 C 314.984 56.226,314.920 56.213,306.932 56.002 C 299.000 55.793,297.200 55.322,297.200 53.457 C 297.200 52.760,295.515 49.440,294.702 48.534 C 294.188 47.962,294.014 47.385,294.189 46.834 C 294.500 45.856,312.941 45.554,317.776 46.448 M312.320 62.880 C 313.097 63.657,313.010 338.759,312.233 339.824 C 311.347 341.037,301.023 341.233,299.580 340.064 L 298.600 339.271 298.600 201.221 C 298.600 78.945,298.669 63.127,299.200 62.792 C 300.113 62.214,311.733 62.293,312.320 62.880 M175.727 156.091 C 173.425 157.247,172.860 160.384,174.840 161.013 C 175.258 161.145,175.600 161.422,175.600 161.627 C 175.600 162.526,242.763 162.080,244.038 161.173 C 246.101 159.704,245.750 157.081,243.349 156.019 C 240.411 154.719,178.324 154.785,175.727 156.091 M115.420 187.393 C 114.134 188.444,113.773 190.732,114.740 191.700 C 115.253 192.213,187.460 192.702,189.493 192.206 C 190.909 191.861,191.660 190.054,190.951 188.700 C 189.693 186.299,191.378 186.399,152.320 186.414 L 116.600 186.429 115.420 187.393 M210.757 186.999 C 208.503 188.224,207.990 189.841,209.381 191.342 L 210.362 192.400 226.755 192.400 C 245.361 192.400,245.200 192.422,245.200 189.843 C 245.200 186.416,245.101 186.397,227.153 186.416 C 214.687 186.429,211.604 186.539,210.757 186.999 M115.694 216.015 C 113.701 216.815,113.658 219.996,115.627 221.014 C 117.138 221.796,242.082 221.910,243.791 221.131 C 245.602 220.306,245.740 216.991,244.000 216.115 C 242.783 215.503,117.213 215.404,115.694 216.015 M115.626 245.546 C 114.547 245.854,113.876 247.568,114.251 249.060 C 114.786 251.191,114.875 251.200,134.755 251.200 L 153.139 251.200 154.369 250.164 C 155.842 248.925,156.001 247.287,154.758 246.162 C 153.885 245.371,118.208 244.810,115.626 245.546 M180.358 245.646 C 178.336 246.388,178.074 248.464,179.771 250.293 L 180.600 251.186 211.846 251.193 C 243.051 251.200,243.094 251.199,244.167 250.355 C 245.635 249.200,245.537 246.489,244.000 245.715 C 242.758 245.090,182.053 245.024,180.358 245.646 " stroke="none" fill="#4a0c65" fill-rule="evenodd"></path><path id="path2" d="M82.200 46.954 C 76.128 48.021,71.970 51.677,70.320 57.400 C 69.247 61.121,69.247 341.679,70.320 345.400 C 71.595 349.824,74.161 352.789,78.442 354.788 L 81.085 356.021 180.242 355.905 L 279.400 355.788 281.639 354.780 C 285.218 353.169,288.724 350.348,288.783 349.031 C 288.793 348.829,289.055 348.379,289.366 348.031 C 291.286 345.891,291.200 352.753,291.200 201.400 C 291.200 43.743,291.470 57.622,288.320 53.132 C 283.573 46.365,286.075 46.600,218.685 46.600 C 171.552 46.600,165.126 46.672,164.792 47.200 C 164.560 47.566,164.410 61.476,164.406 82.894 L 164.400 117.987 163.300 119.208 C 161.796 120.876,159.579 121.231,157.991 120.056 C 157.354 119.585,156.667 119.200,156.465 119.200 C 156.263 119.200,155.875 118.931,155.602 118.603 C 155.329 118.274,154.182 117.453,153.053 116.779 C 151.924 116.104,150.280 115.017,149.400 114.364 C 148.520 113.710,147.395 113.005,146.900 112.797 C 146.405 112.590,146.000 112.235,146.000 112.010 C 146.000 111.784,145.730 111.600,145.400 111.600 C 145.070 111.600,144.458 111.258,144.039 110.839 C 143.621 110.421,142.901 109.959,142.439 109.813 C 141.978 109.666,141.600 109.381,141.600 109.178 C 141.600 108.976,141.015 108.539,140.300 108.208 C 139.585 107.876,137.740 106.712,136.200 105.620 C 132.856 103.250,132.009 103.171,129.395 104.985 C 128.298 105.746,127.033 106.537,126.584 106.743 C 126.135 106.948,125.527 107.405,125.235 107.758 C 124.942 108.111,124.550 108.400,124.364 108.400 C 124.082 108.400,119.974 111.045,118.600 112.111 C 118.380 112.281,117.300 112.998,116.200 113.703 C 115.100 114.408,114.020 115.126,113.800 115.298 C 113.580 115.470,112.726 116.053,111.901 116.593 C 110.476 117.526,109.601 118.113,106.755 120.045 C 104.999 121.238,103.001 120.862,101.300 119.020 L 100.000 117.612 99.994 82.706 C 99.990 61.452,99.840 47.565,99.609 47.200 C 99.108 46.406,86.345 46.225,82.200 46.954 M99.600 83.000 L 99.800 118.600 100.846 119.700 C 101.421 120.305,102.150 120.800,102.466 120.800 C 103.765 120.800,104.000 121.723,104.000 126.837 C 104.000 131.077,104.103 131.954,104.627 132.155 C 105.135 132.350,114.704 126.356,123.800 120.146 C 126.476 118.319,129.973 116.034,131.029 115.423 C 132.633 114.495,132.798 114.577,142.200 121.000 C 144.776 122.760,147.192 124.380,147.568 124.600 C 147.944 124.820,149.320 125.709,150.626 126.575 C 151.932 127.442,153.720 128.611,154.600 129.174 C 155.480 129.737,156.290 130.298,156.400 130.420 C 156.510 130.542,157.280 131.055,158.110 131.560 C 160.599 133.072,160.762 132.776,160.889 126.517 C 160.995 121.248,161.038 120.995,161.845 120.879 C 162.310 120.813,163.210 120.216,163.845 119.553 L 165.000 118.348 165.111 83.091 C 165.196 55.828,165.332 47.764,165.711 47.523 C 166.446 47.056,272.138 47.120,273.369 47.588 C 274.915 48.176,276.641 50.272,278.303 53.579 L 279.800 56.559 279.800 201.400 L 279.800 346.241 278.291 349.295 C 277.294 351.312,276.156 352.899,274.935 353.974 L 273.087 355.600 177.367 355.600 C 124.131 355.600,81.553 355.447,81.434 355.255 C 81.317 355.065,80.361 354.669,79.310 354.376 C 78.260 354.082,77.150 353.652,76.844 353.421 C 75.030 352.049,72.463 349.102,71.600 347.402 L 70.600 345.433 70.600 201.216 L 70.600 57.000 71.573 55.400 C 75.896 48.291,78.352 47.295,91.400 47.360 L 99.400 47.400 99.600 83.000 M295.887 47.473 C 295.651 47.873,296.008 48.701,297.757 51.800 L 299.111 54.200 306.055 54.421 C 315.105 54.710,317.316 55.650,319.763 60.246 L 320.800 62.194 320.800 201.403 L 320.800 340.612 319.900 342.281 C 317.315 347.074,315.875 347.682,306.562 347.909 L 299.324 348.085 298.202 350.343 C 297.586 351.584,296.863 352.870,296.597 353.200 C 296.331 353.530,296.014 354.205,295.894 354.700 L 295.675 355.600 306.892 355.600 C 321.570 355.600,324.917 354.327,328.400 347.416 L 329.400 345.433 329.400 201.216 L 329.400 57.000 328.437 55.256 C 326.943 52.552,324.613 50.239,321.889 48.755 L 319.400 47.400 307.740 47.273 C 301.327 47.203,295.993 47.293,295.887 47.473 M303.113 63.895 C 304.276 63.976,306.076 63.976,307.113 63.893 C 308.151 63.811,307.200 63.745,305.000 63.746 C 302.800 63.747,301.951 63.814,303.113 63.895 M175.800 154.334 C 171.561 155.742,170.973 161.406,174.924 162.783 C 176.525 163.341,242.023 163.356,244.029 162.799 C 247.314 161.886,247.800 157.831,244.945 155.149 L 243.936 154.200 210.268 154.134 C 191.751 154.098,176.240 154.188,175.800 154.334 M244.531 155.720 C 247.473 157.964,246.180 162.036,242.350 162.589 C 241.388 162.728,225.889 162.787,207.909 162.721 L 175.218 162.600 174.159 161.541 C 171.982 159.363,173.071 155.739,176.178 154.822 C 176.869 154.617,191.655 154.491,210.231 154.530 L 243.063 154.600 244.531 155.720 M115.719 185.480 C 112.681 186.069,111.593 190.032,113.765 192.600 L 115.119 194.200 152.552 194.200 L 189.985 194.200 191.292 192.892 C 193.676 190.508,192.749 186.520,189.600 185.609 C 188.244 185.217,117.710 185.094,115.719 185.480 M210.555 185.475 C 207.470 186.082,206.382 190.566,208.746 192.931 L 210.015 194.200 225.907 194.322 C 244.214 194.462,246.000 194.263,246.000 192.086 C 246.000 191.856,246.217 191.594,246.481 191.506 C 248.268 190.911,246.067 186.278,243.683 185.616 C 242.269 185.224,212.479 185.097,210.555 185.475 M190.734 186.937 C 192.784 188.901,192.464 191.726,190.050 192.974 C 188.265 193.897,116.995 193.928,115.213 193.007 C 112.971 191.847,112.703 188.293,114.750 186.836 C 116.383 185.673,115.639 185.694,153.674 185.748 L 189.548 185.800 190.734 186.937 M244.774 186.975 C 246.584 188.710,246.536 191.151,244.662 192.580 L 243.324 193.600 227.209 193.600 C 208.256 193.600,207.320 193.376,207.954 189.000 C 208.420 185.780,208.983 185.688,227.874 185.749 L 243.548 185.800 244.774 186.975 M117.000 213.867 C 112.916 214.780,111.240 218.375,113.582 221.200 L 114.743 222.600 178.797 222.705 C 214.027 222.762,243.414 222.664,244.102 222.486 C 246.063 221.977,247.995 217.398,246.463 216.888 C 246.208 216.803,246.000 216.493,246.000 216.199 C 246.000 215.906,245.325 215.246,244.500 214.733 L 243.000 213.800 180.400 213.744 C 145.970 213.713,117.440 213.768,117.000 213.867 M243.250 215.011 C 246.822 216.256,247.199 220.708,243.841 221.984 C 242.253 222.588,117.382 222.561,115.648 221.957 C 112.222 220.763,112.582 216.152,116.200 214.884 C 118.353 214.129,241.073 214.251,243.250 215.011 M114.749 244.273 C 112.248 245.826,111.753 248.593,113.582 250.800 L 114.743 252.200 134.806 252.200 L 154.869 252.200 155.835 251.078 C 157.007 249.715,157.210 246.368,156.172 245.516 C 155.826 245.232,155.246 244.685,154.883 244.300 C 153.906 243.265,116.414 243.240,114.749 244.273 M178.889 244.777 C 177.130 246.384,176.998 249.695,178.632 251.230 L 179.664 252.200 211.132 252.320 C 245.214 252.449,244.971 252.463,246.084 250.313 C 247.334 247.899,247.180 246.808,245.339 245.019 L 243.877 243.600 212.028 243.600 L 180.178 243.600 178.889 244.777 M152.764 244.253 C 156.175 244.935,157.488 248.408,155.174 250.625 L 153.948 251.800 135.674 251.922 C 115.329 252.058,114.877 252.014,113.817 249.778 C 112.631 247.279,113.612 245.263,116.400 244.470 C 117.942 244.032,150.681 243.836,152.764 244.253 M242.926 244.428 C 246.060 245.298,247.075 248.306,245.035 250.678 L 244.069 251.800 212.033 251.800 L 179.997 251.800 178.999 250.638 C 177.003 248.315,177.967 245.303,180.987 244.425 C 182.788 243.901,241.039 243.904,242.926 244.428 " stroke="none" fill="#049f97" fill-rule="evenodd"></path><path id="path3" d="M82.000 47.480 C 78.253 47.907,74.306 50.905,71.573 55.400 L 70.600 57.000 70.600 201.216 L 70.600 345.433 71.600 347.402 C 72.463 349.102,75.030 352.049,76.844 353.421 C 77.150 353.652,78.260 354.082,79.310 354.376 C 80.361 354.669,81.317 355.065,81.434 355.255 C 81.553 355.447,124.131 355.600,177.367 355.600 L 273.087 355.600 274.935 353.974 C 276.156 352.899,277.294 351.312,278.291 349.295 L 279.800 346.241 279.800 201.400 L 279.800 56.559 278.303 53.579 C 276.641 50.272,274.915 48.176,273.369 47.588 C 272.138 47.120,166.446 47.056,165.711 47.523 C 165.332 47.764,165.196 55.828,165.111 83.091 L 165.000 118.348 163.845 119.553 C 163.210 120.216,162.310 120.813,161.845 120.879 C 161.038 120.995,160.995 121.248,160.889 126.517 C 160.762 132.776,160.599 133.072,158.110 131.560 C 157.280 131.055,156.510 130.542,156.400 130.420 C 156.290 130.298,155.480 129.737,154.600 129.174 C 153.720 128.611,151.932 127.442,150.626 126.575 C 149.320 125.709,147.944 124.820,147.568 124.600 C 147.192 124.380,144.776 122.760,142.200 121.000 C 132.798 114.577,132.633 114.495,131.029 115.423 C 129.973 116.034,126.476 118.319,123.800 120.146 C 114.704 126.356,105.135 132.350,104.627 132.155 C 104.103 131.954,104.000 131.077,104.000 126.837 C 104.000 121.723,103.765 120.800,102.466 120.800 C 102.150 120.800,101.421 120.305,100.846 119.700 L 99.800 118.600 99.600 83.000 L 99.400 47.400 91.400 47.360 C 87.000 47.338,82.770 47.392,82.000 47.480 M300.585 64.500 C 300.481 64.775,300.441 126.560,300.498 201.800 L 300.600 338.600 304.600 338.723 C 306.800 338.791,309.365 338.735,310.300 338.598 L 312.000 338.351 312.000 201.720 C 312.000 72.064,311.964 65.061,311.300 64.557 C 310.336 63.825,300.860 63.775,300.585 64.500 M244.945 155.149 C 247.800 157.831,247.314 161.886,244.029 162.799 C 242.023 163.356,176.525 163.341,174.924 162.783 C 170.973 161.406,171.561 155.742,175.800 154.334 C 176.240 154.188,191.751 154.098,210.268 154.134 L 243.936 154.200 244.945 155.149 M189.600 185.609 C 192.749 186.520,193.676 190.508,191.292 192.892 L 189.985 194.200 152.552 194.200 L 115.119 194.200 113.765 192.600 C 111.593 190.032,112.681 186.069,115.719 185.480 C 117.710 185.094,188.244 185.217,189.600 185.609 M243.683 185.616 C 246.067 186.278,248.268 190.911,246.481 191.506 C 246.217 191.594,246.000 191.856,246.000 192.086 C 246.000 194.263,244.214 194.462,225.907 194.322 L 210.015 194.200 208.746 192.931 C 206.382 190.566,207.470 186.082,210.555 185.475 C 212.479 185.097,242.269 185.224,243.683 185.616 M244.500 214.733 C 245.325 215.246,246.000 215.906,246.000 216.199 C 246.000 216.493,246.208 216.803,246.463 216.888 C 247.995 217.398,246.063 221.977,244.102 222.486 C 243.414 222.664,214.027 222.762,178.797 222.705 L 114.743 222.600 113.582 221.200 C 111.240 218.375,112.916 214.780,117.000 213.867 C 117.440 213.768,145.970 213.713,180.400 213.744 L 243.000 213.800 244.500 214.733 M154.883 244.300 C 155.246 244.685,155.826 245.232,156.172 245.516 C 157.210 246.368,157.007 249.715,155.835 251.078 L 154.869 252.200 134.806 252.200 L 114.743 252.200 113.582 250.800 C 111.753 248.593,112.248 245.826,114.749 244.273 C 116.414 243.240,153.906 243.265,154.883 244.300 M245.339 245.019 C 247.180 246.808,247.334 247.899,246.084 250.313 C 244.971 252.463,245.214 252.449,211.132 252.320 L 179.664 252.200 178.632 251.230 C 176.998 249.695,177.130 246.384,178.889 244.777 L 180.178 243.600 212.028 243.600 L 243.877 243.600 245.339 245.019 " stroke="none" fill="#04e39b" fill-rule="evenodd"></path><path id="path4" d="M81.000 46.367 C 76.379 47.496,70.400 52.322,70.400 54.924 C 70.400 55.192,70.040 56.084,69.600 56.904 C 68.563 58.839,68.307 343.902,69.340 345.411 C 69.637 345.845,70.008 346.723,70.163 347.361 C 70.819 350.055,73.699 353.199,77.400 355.262 L 79.800 356.600 175.181 356.705 C 269.204 356.808,281.311 356.679,282.706 355.553 C 283.088 355.245,284.081 354.648,284.914 354.226 C 287.102 353.118,289.474 350.356,290.825 347.345 L 292.000 344.725 292.000 201.414 L 292.000 58.102 291.171 56.229 C 289.960 53.489,288.283 51.157,286.537 49.785 C 281.141 45.542,285.934 45.841,220.959 45.699 C 174.028 45.596,164.844 45.665,164.465 46.121 C 164.138 46.516,163.983 56.486,163.906 82.166 L 163.800 117.666 162.494 118.833 C 160.924 120.236,160.495 120.265,158.523 119.103 C 156.448 117.881,150.784 114.190,149.800 113.419 C 149.360 113.075,148.190 112.259,147.200 111.608 C 146.210 110.956,144.950 110.118,144.400 109.744 C 132.512 101.682,132.810 101.804,129.577 103.668 C 128.092 104.524,126.658 105.489,126.390 105.812 C 126.122 106.135,125.753 106.400,125.571 106.400 C 125.389 106.400,124.405 106.985,123.385 107.700 C 122.364 108.415,121.230 109.182,120.865 109.405 C 118.907 110.597,117.766 111.435,117.480 111.890 C 117.304 112.171,116.954 112.400,116.702 112.400 C 116.221 112.400,113.178 114.354,112.754 114.935 C 112.508 115.272,111.133 116.125,110.000 116.643 C 109.670 116.794,108.950 117.314,108.400 117.799 C 106.568 119.414,104.075 120.141,102.934 119.394 C 100.248 117.634,100.403 119.938,100.401 81.674 C 100.400 58.642,100.262 46.890,99.986 46.374 C 99.407 45.292,85.419 45.288,81.000 46.367 M294.189 46.834 C 294.014 47.385,294.188 47.962,294.702 48.534 C 295.515 49.440,297.200 52.760,297.200 53.457 C 297.200 55.322,299.000 55.793,306.932 56.002 C 314.920 56.213,314.984 56.226,317.105 58.152 C 319.801 60.601,319.600 49.033,319.600 201.622 C 319.600 352.120,319.751 341.900,317.486 344.328 C 315.433 346.529,314.222 346.800,306.432 346.800 C 298.353 346.800,298.152 346.869,297.159 349.965 C 296.906 350.754,296.483 351.670,296.218 352.000 C 294.810 353.758,293.963 355.730,294.477 356.056 C 294.765 356.238,300.473 356.391,307.161 356.394 L 319.323 356.400 321.902 355.181 C 326.052 353.220,328.485 350.309,330.243 345.200 C 331.409 341.811,331.433 61.617,330.267 57.800 C 328.313 51.400,324.164 47.630,317.776 46.448 C 312.941 45.554,294.500 45.856,294.189 46.834 M99.609 47.200 C 99.840 47.565,99.990 61.452,99.994 82.706 L 100.000 117.612 101.300 119.020 C 103.001 120.862,104.999 121.238,106.755 120.045 C 109.601 118.113,110.476 117.526,111.901 116.593 C 112.726 116.053,113.580 115.470,113.800 115.298 C 114.020 115.126,115.100 114.408,116.200 113.703 C 117.300 112.998,118.380 112.281,118.600 112.111 C 119.974 111.045,124.082 108.400,124.364 108.400 C 124.550 108.400,124.942 108.111,125.235 107.758 C 125.527 107.405,126.135 106.948,126.584 106.743 C 127.033 106.537,128.298 105.746,129.395 104.985 C 132.009 103.171,132.856 103.250,136.200 105.620 C 137.740 106.712,139.585 107.876,140.300 108.208 C 141.015 108.539,141.600 108.976,141.600 109.178 C 141.600 109.381,141.978 109.666,142.439 109.813 C 142.901 109.959,143.621 110.421,144.039 110.839 C 144.458 111.258,145.070 111.600,145.400 111.600 C 145.730 111.600,146.000 111.784,146.000 112.010 C 146.000 112.235,146.405 112.590,146.900 112.797 C 147.395 113.005,148.520 113.710,149.400 114.364 C 150.280 115.017,151.924 116.104,153.053 116.779 C 154.182 117.453,155.329 118.274,155.602 118.603 C 155.875 118.931,156.263 119.200,156.465 119.200 C 156.667 119.200,157.354 119.585,157.991 120.056 C 159.579 121.231,161.796 120.876,163.300 119.208 L 164.400 117.987 164.406 82.894 C 164.410 61.476,164.560 47.566,164.792 47.200 C 165.126 46.672,171.552 46.600,218.685 46.600 C 276.560 46.600,279.361 46.685,282.884 48.559 C 286.045 50.239,286.645 50.744,288.320 53.132 C 291.470 57.622,291.200 43.743,291.200 201.400 C 291.200 352.753,291.286 345.891,289.366 348.031 C 289.055 348.379,288.793 348.829,288.783 349.031 C 288.724 350.348,285.218 353.169,281.639 354.780 L 279.400 355.788 180.242 355.905 L 81.085 356.021 78.442 354.788 C 74.161 352.789,71.595 349.824,70.320 345.400 C 69.247 341.679,69.247 61.121,70.320 57.400 C 71.970 51.677,76.128 48.021,82.200 46.954 C 86.345 46.225,99.108 46.406,99.609 47.200 M321.889 48.755 C 324.613 50.239,326.943 52.552,328.437 55.256 L 329.400 57.000 329.400 201.216 L 329.400 345.433 328.400 347.416 C 324.917 354.327,321.570 355.600,306.892 355.600 L 295.675 355.600 295.894 354.700 C 296.014 354.205,296.331 353.530,296.597 353.200 C 296.863 352.870,297.586 351.584,298.202 350.343 L 299.324 348.085 306.562 347.909 C 315.875 347.682,317.315 347.074,319.900 342.281 L 320.800 340.612 320.800 201.403 L 320.800 62.194 319.763 60.246 C 317.316 55.650,315.105 54.710,306.055 54.421 L 299.111 54.200 297.757 51.800 C 296.008 48.701,295.651 47.873,295.887 47.473 C 295.993 47.293,301.327 47.203,307.740 47.273 L 319.400 47.400 321.889 48.755 M298.598 201.200 C 298.598 276.770,298.644 307.685,298.700 269.900 C 298.756 232.115,298.756 170.285,298.700 132.500 C 298.644 94.715,298.598 125.630,298.598 201.200 M176.178 154.822 C 173.071 155.739,171.982 159.363,174.159 161.541 L 175.218 162.600 207.909 162.721 C 225.889 162.787,241.388 162.728,242.350 162.589 C 246.180 162.036,247.473 157.964,244.531 155.720 L 243.063 154.600 210.231 154.530 C 191.655 154.491,176.869 154.617,176.178 154.822 M243.349 156.019 C 245.750 157.081,246.101 159.704,244.038 161.173 C 242.763 162.080,175.600 162.526,175.600 161.627 C 175.600 161.422,175.258 161.145,174.840 161.013 C 172.860 160.384,173.425 157.247,175.727 156.091 C 178.324 154.785,240.411 154.719,243.349 156.019 M116.805 185.889 C 113.110 186.601,112.044 191.368,115.213 193.007 C 116.995 193.928,188.265 193.897,190.050 192.974 C 192.464 191.726,192.784 188.901,190.734 186.937 L 189.548 185.800 153.674 185.748 C 133.943 185.720,117.352 185.783,116.805 185.889 M211.154 185.871 C 207.783 186.425,206.853 190.979,209.747 192.767 C 211.054 193.575,211.580 193.600,227.209 193.600 L 243.324 193.600 244.662 192.580 C 246.536 191.151,246.584 188.710,244.774 186.975 L 243.548 185.800 227.874 185.749 C 219.253 185.722,211.729 185.776,211.154 185.871 M189.210 187.005 C 191.713 188.299,191.893 191.620,189.493 192.206 C 187.460 192.702,115.253 192.213,114.740 191.700 C 113.773 190.732,114.134 188.444,115.420 187.393 L 116.600 186.429 152.320 186.414 C 183.440 186.402,188.190 186.478,189.210 187.005 M243.853 187.233 C 245.673 188.358,245.875 191.363,244.174 192.010 C 243.568 192.240,236.438 192.400,226.755 192.400 L 210.362 192.400 209.381 191.342 C 207.990 189.841,208.503 188.224,210.757 186.999 C 212.693 185.947,242.109 186.155,243.853 187.233 M116.200 214.884 C 112.582 216.152,112.222 220.763,115.648 221.957 C 117.382 222.561,242.253 222.588,243.841 221.984 C 247.199 220.708,246.822 216.256,243.250 215.011 C 241.073 214.251,118.353 214.129,116.200 214.884 M244.000 216.115 C 245.740 216.991,245.602 220.306,243.791 221.131 C 242.082 221.910,117.138 221.796,115.627 221.014 C 113.658 219.996,113.701 216.815,115.694 216.015 C 117.213 215.404,242.783 215.503,244.000 216.115 M116.400 244.470 C 113.612 245.263,112.631 247.279,113.817 249.778 C 114.877 252.014,115.329 252.058,135.674 251.922 L 153.948 251.800 155.174 250.625 C 157.488 248.408,156.175 244.935,152.764 244.253 C 150.681 243.836,117.942 244.032,116.400 244.470 M180.987 244.425 C 177.967 245.303,177.003 248.315,178.999 250.638 L 179.997 251.800 212.033 251.800 L 244.069 251.800 245.035 250.678 C 247.075 248.306,246.060 245.298,242.926 244.428 C 241.039 243.904,182.788 243.901,180.987 244.425 M154.758 246.162 C 156.001 247.287,155.842 248.925,154.369 250.164 L 153.139 251.200 134.755 251.200 C 114.875 251.200,114.786 251.191,114.251 249.060 C 113.876 247.568,114.547 245.854,115.626 245.546 C 118.208 244.810,153.885 245.371,154.758 246.162 M244.000 245.715 C 245.537 246.489,245.635 249.200,244.167 250.355 C 243.094 251.199,243.051 251.200,211.846 251.193 L 180.600 251.186 179.771 250.293 C 178.074 248.464,178.336 246.388,180.358 245.646 C 182.053 245.024,242.758 245.090,244.000 245.715 M298.800 339.108 C 298.800 340.404,300.526 340.801,305.789 340.713 L 311.000 340.626 305.812 340.500 C 301.157 340.388,300.531 340.287,299.712 339.518 C 299.211 339.046,298.800 338.862,298.800 339.108 " stroke="none" fill="#1c7c74" fill-rule="evenodd"></path></g></svg>